<?xml version="1.0" encoding="UTF-8" standalone="no"?><!DOCTYPE svg PUBLIC "-//W3C//DTD SVG 1.1//EN" "http://www.w3.org/Graphics/SVG/1.1/DTD/svg11.dtd"><!-- Generated by graphviz version 2.40.1 (20161225.0304)
 --><!-- Title: %0 Pages: 1 --><svg xmlns="http://www.w3.org/2000/svg" xmlns:xlink="http://www.w3.org/1999/xlink" width="781pt" height="1268pt" viewBox="0.00 0.00 781.42 1268.00">
<g id="graph0" class="graph" transform="scale(1 1) rotate(0) translate(4 1264)">
<title>%0</title>
<polygon fill="#ffffff" stroke="transparent" points="-4,4 -4,-1264 777.4194,-1264 777.4194,4 -4,4"/>
<!-- 0 -->
<g id="node1" class="node">
<title>0</title>
<ellipse fill="none" stroke="#000000" cx="566.4194" cy="-1242" rx="27" ry="18"/>
<text text-anchor="middle" x="566.4194" y="-1237.8" font-family="Times,serif" font-size="14.00" fill="#000000">E</text>
</g>
<!-- 1 -->
<g id="node2" class="node">
<title>1</title>
<ellipse fill="none" stroke="#000000" cx="530.4194" cy="-1170" rx="27" ry="18"/>
<text text-anchor="middle" x="530.4194" y="-1165.8" font-family="Times,serif" font-size="14.00" fill="#000000">T</text>
</g>
<!-- 0&#45;&gt;1 -->
<g id="edge1" class="edge">
<title>0-&gt;1</title>
<path fill="none" stroke="#000000" d="M557.7048,-1224.5708C553.4598,-1216.0807 548.2658,-1205.6929 543.5531,-1196.2674"/>
<polygon fill="#000000" stroke="#000000" points="546.6565,-1194.6477 539.0538,-1187.2687 540.3955,-1197.7782 546.6565,-1194.6477"/>
</g>
<!-- 25 -->
<g id="node26" class="node">
<title>25</title>
<ellipse fill="none" stroke="#000000" cx="602.4194" cy="-1170" rx="27" ry="18"/>
<text text-anchor="middle" x="602.4194" y="-1165.8" font-family="Times,serif" font-size="14.00" fill="#000000">E'</text>
</g>
<!-- 0&#45;&gt;25 -->
<g id="edge25" class="edge">
<title>0-&gt;25</title>
<path fill="none" stroke="#000000" d="M575.134,-1224.5708C579.3791,-1216.0807 584.573,-1205.6929 589.2857,-1196.2674"/>
<polygon fill="#000000" stroke="#000000" points="592.4434,-1197.7782 593.7851,-1187.2687 586.1824,-1194.6477 592.4434,-1197.7782"/>
</g>
<!-- 2 -->
<g id="node3" class="node">
<title>2</title>
<ellipse fill="none" stroke="#000000" cx="458.4194" cy="-1098" rx="27" ry="18"/>
<text text-anchor="middle" x="458.4194" y="-1093.8" font-family="Times,serif" font-size="14.00" fill="#000000">F</text>
</g>
<!-- 1&#45;&gt;2 -->
<g id="edge2" class="edge">
<title>1-&gt;2</title>
<path fill="none" stroke="#000000" d="M515.1501,-1154.7307C505.2224,-1144.803 492.1041,-1131.6847 480.9831,-1120.5637"/>
<polygon fill="#000000" stroke="#000000" points="483.2127,-1117.8436 473.6668,-1113.2473 478.263,-1122.7933 483.2127,-1117.8436"/>
</g>
<!-- 23 -->
<g id="node24" class="node">
<title>23</title>
<ellipse fill="none" stroke="#000000" cx="530.4194" cy="-1098" rx="27" ry="18"/>
<text text-anchor="middle" x="530.4194" y="-1093.8" font-family="Times,serif" font-size="14.00" fill="#000000">T'</text>
</g>
<!-- 1&#45;&gt;23 -->
<g id="edge23" class="edge">
<title>1-&gt;23</title>
<path fill="none" stroke="#000000" d="M530.4194,-1151.8314C530.4194,-1144.131 530.4194,-1134.9743 530.4194,-1126.4166"/>
<polygon fill="#000000" stroke="#000000" points="533.9195,-1126.4132 530.4194,-1116.4133 526.9195,-1126.4133 533.9195,-1126.4132"/>
</g>
<!-- 3 -->
<g id="node4" class="node">
<title>3</title>
<ellipse fill="none" stroke="#000000" cx="350.4194" cy="-1026" rx="27" ry="18"/>
<text text-anchor="middle" x="350.4194" y="-1021.8" font-family="Times,serif" font-size="14.00" fill="#000000">P</text>
</g>
<!-- 2&#45;&gt;3 -->
<g id="edge3" class="edge">
<title>2-&gt;3</title>
<path fill="none" stroke="#000000" d="M439.1112,-1085.1278C422.0639,-1073.763 397.0175,-1057.0654 377.885,-1044.3104"/>
<polygon fill="#000000" stroke="#000000" points="379.8225,-1041.3956 369.5605,-1038.7607 375.9395,-1047.2199 379.8225,-1041.3956"/>
</g>
<!-- 21 -->
<g id="node22" class="node">
<title>21</title>
<ellipse fill="none" stroke="#000000" cx="458.4194" cy="-1026" rx="27" ry="18"/>
<text text-anchor="middle" x="458.4194" y="-1021.8" font-family="Times,serif" font-size="14.00" fill="#000000">F'</text>
</g>
<!-- 2&#45;&gt;21 -->
<g id="edge21" class="edge">
<title>2-&gt;21</title>
<path fill="none" stroke="#000000" d="M458.4194,-1079.8314C458.4194,-1072.131 458.4194,-1062.9743 458.4194,-1054.4166"/>
<polygon fill="#000000" stroke="#000000" points="461.9195,-1054.4132 458.4194,-1044.4133 454.9195,-1054.4133 461.9195,-1054.4132"/>
</g>
<!-- 4 -->
<g id="node5" class="node">
<title>4</title>
<ellipse fill="none" stroke="#000000" cx="242.4194" cy="-954" rx="27" ry="18"/>
<text text-anchor="middle" x="242.4194" y="-949.8" font-family="Times,serif" font-size="14.00" fill="#000000">(</text>
</g>
<!-- 3&#45;&gt;4 -->
<g id="edge4" class="edge">
<title>3-&gt;4</title>
<path fill="none" stroke="#000000" d="M331.1112,-1013.1278C314.0639,-1001.763 289.0175,-985.0654 269.885,-972.3104"/>
<polygon fill="#000000" stroke="#000000" points="271.8225,-969.3956 261.5605,-966.7607 267.9395,-975.2199 271.8225,-969.3956"/>
</g>
<!-- 5 -->
<g id="node6" class="node">
<title>5</title>
<ellipse fill="none" stroke="#000000" cx="314.4194" cy="-954" rx="27" ry="18"/>
<text text-anchor="middle" x="314.4194" y="-949.8" font-family="Times,serif" font-size="14.00" fill="#000000">E</text>
</g>
<!-- 3&#45;&gt;5 -->
<g id="edge5" class="edge">
<title>3-&gt;5</title>
<path fill="none" stroke="#000000" d="M341.7048,-1008.5708C337.4598,-1000.0807 332.2658,-989.6929 327.5531,-980.2674"/>
<polygon fill="#000000" stroke="#000000" points="330.6565,-978.6477 323.0538,-971.2687 324.3955,-981.7782 330.6565,-978.6477"/>
</g>
<!-- 20 -->
<g id="node21" class="node">
<title>20</title>
<ellipse fill="none" stroke="#000000" cx="386.4194" cy="-954" rx="27" ry="18"/>
<text text-anchor="middle" x="386.4194" y="-949.8" font-family="Times,serif" font-size="14.00" fill="#000000">)</text>
</g>
<!-- 3&#45;&gt;20 -->
<g id="edge20" class="edge">
<title>3-&gt;20</title>
<path fill="none" stroke="#000000" d="M359.134,-1008.5708C363.3791,-1000.0807 368.573,-989.6929 373.2857,-980.2674"/>
<polygon fill="#000000" stroke="#000000" points="376.4434,-981.7782 377.7851,-971.2687 370.1824,-978.6477 376.4434,-981.7782"/>
</g>
<!-- 6 -->
<g id="node7" class="node">
<title>6</title>
<ellipse fill="none" stroke="#000000" cx="258.4194" cy="-882" rx="27" ry="18"/>
<text text-anchor="middle" x="258.4194" y="-877.8" font-family="Times,serif" font-size="14.00" fill="#000000">T</text>
</g>
<!-- 5&#45;&gt;6 -->
<g id="edge6" class="edge">
<title>5-&gt;6</title>
<path fill="none" stroke="#000000" d="M301.7122,-937.6621C294.4806,-928.3644 285.2859,-916.5426 277.2318,-906.1873"/>
<polygon fill="#000000" stroke="#000000" points="279.9786,-904.018 271.0764,-898.2733 274.4531,-908.3156 279.9786,-904.018"/>
</g>
<!-- 18 -->
<g id="node19" class="node">
<title>18</title>
<ellipse fill="none" stroke="#000000" cx="330.4194" cy="-882" rx="27" ry="18"/>
<text text-anchor="middle" x="330.4194" y="-877.8" font-family="Times,serif" font-size="14.00" fill="#000000">E'</text>
</g>
<!-- 5&#45;&gt;18 -->
<g id="edge18" class="edge">
<title>5-&gt;18</title>
<path fill="none" stroke="#000000" d="M318.4569,-935.8314C320.2135,-927.9266 322.3111,-918.4872 324.2558,-909.7365"/>
<polygon fill="#000000" stroke="#000000" points="327.6859,-910.4346 326.4387,-899.9134 320.8526,-908.916 327.6859,-910.4346"/>
</g>
<!-- 7 -->
<g id="node8" class="node">
<title>7</title>
<ellipse fill="none" stroke="#000000" cx="186.4194" cy="-810" rx="27" ry="18"/>
<text text-anchor="middle" x="186.4194" y="-805.8" font-family="Times,serif" font-size="14.00" fill="#000000">F</text>
</g>
<!-- 6&#45;&gt;7 -->
<g id="edge7" class="edge">
<title>6-&gt;7</title>
<path fill="none" stroke="#000000" d="M243.1501,-866.7307C233.2224,-856.803 220.1041,-843.6847 208.9831,-832.5637"/>
<polygon fill="#000000" stroke="#000000" points="211.2127,-829.8436 201.6668,-825.2473 206.263,-834.7933 211.2127,-829.8436"/>
</g>
<!-- 16 -->
<g id="node17" class="node">
<title>16</title>
<ellipse fill="none" stroke="#000000" cx="258.4194" cy="-810" rx="27" ry="18"/>
<text text-anchor="middle" x="258.4194" y="-805.8" font-family="Times,serif" font-size="14.00" fill="#000000">T'</text>
</g>
<!-- 6&#45;&gt;16 -->
<g id="edge16" class="edge">
<title>6-&gt;16</title>
<path fill="none" stroke="#000000" d="M258.4194,-863.8314C258.4194,-856.131 258.4194,-846.9743 258.4194,-838.4166"/>
<polygon fill="#000000" stroke="#000000" points="261.9195,-838.4132 258.4194,-828.4133 254.9195,-838.4133 261.9195,-838.4132"/>
</g>
<!-- 8 -->
<g id="node9" class="node">
<title>8</title>
<ellipse fill="none" stroke="#000000" cx="79.4194" cy="-738" rx="27" ry="18"/>
<text text-anchor="middle" x="79.4194" y="-733.8" font-family="Times,serif" font-size="14.00" fill="#000000">P</text>
</g>
<!-- 7&#45;&gt;8 -->
<g id="edge8" class="edge">
<title>7-&gt;8</title>
<path fill="none" stroke="#000000" d="M167.29,-797.1278C150.5804,-785.884 126.1137,-769.4204 107.2383,-756.7192"/>
<polygon fill="#000000" stroke="#000000" points="108.9946,-753.6824 98.744,-751.0035 105.0866,-759.4901 108.9946,-753.6824"/>
</g>
<!-- 10 -->
<g id="node11" class="node">
<title>10</title>
<ellipse fill="none" stroke="#000000" cx="186.4194" cy="-738" rx="27" ry="18"/>
<text text-anchor="middle" x="186.4194" y="-733.8" font-family="Times,serif" font-size="14.00" fill="#000000">F'</text>
</g>
<!-- 7&#45;&gt;10 -->
<g id="edge10" class="edge">
<title>7-&gt;10</title>
<path fill="none" stroke="#000000" d="M186.4194,-791.8314C186.4194,-784.131 186.4194,-774.9743 186.4194,-766.4166"/>
<polygon fill="#000000" stroke="#000000" points="189.9195,-766.4132 186.4194,-756.4133 182.9195,-766.4133 189.9195,-766.4132"/>
</g>
<!-- 9 -->
<g id="node10" class="node">
<title>9</title>
<ellipse fill="none" stroke="#000000" cx="31.4194" cy="-666" rx="31.339" ry="18"/>
<text text-anchor="middle" x="31.4194" y="-661.8" font-family="Times,serif" font-size="14.00" fill="#000000">VAR</text>
</g>
<!-- 8&#45;&gt;9 -->
<g id="edge9" class="edge">
<title>8-&gt;9</title>
<path fill="none" stroke="#000000" d="M68.2866,-721.3008C62.3747,-712.4329 54.9838,-701.3465 48.3749,-691.4332"/>
<polygon fill="#000000" stroke="#000000" points="51.2844,-689.4877 42.8252,-683.1086 45.46,-693.3706 51.2844,-689.4877"/>
</g>
<!-- 11 -->
<g id="node12" class="node">
<title>11</title>
<ellipse fill="none" stroke="#000000" cx="112.4194" cy="-666" rx="31.9012" ry="18"/>
<text text-anchor="middle" x="112.4194" y="-661.8" font-family="Times,serif" font-size="14.00" fill="#000000">AND</text>
</g>
<!-- 10&#45;&gt;11 -->
<g id="edge11" class="edge">
<title>10-&gt;11</title>
<path fill="none" stroke="#000000" d="M171.0866,-723.0816C160.8768,-713.1477 147.2685,-699.9072 135.7287,-688.6793"/>
<polygon fill="#000000" stroke="#000000" points="138.1086,-686.1115 128.5005,-681.6465 133.2271,-691.1286 138.1086,-686.1115"/>
</g>
<!-- 12 -->
<g id="node13" class="node">
<title>12</title>
<ellipse fill="none" stroke="#000000" cx="189.4194" cy="-666" rx="27" ry="18"/>
<text text-anchor="middle" x="189.4194" y="-661.8" font-family="Times,serif" font-size="14.00" fill="#000000">P</text>
</g>
<!-- 10&#45;&gt;12 -->
<g id="edge12" class="edge">
<title>10-&gt;12</title>
<path fill="none" stroke="#000000" d="M187.1764,-719.8314C187.4973,-712.131 187.8788,-702.9743 188.2354,-694.4166"/>
<polygon fill="#000000" stroke="#000000" points="191.7328,-694.5503 188.6522,-684.4133 184.7388,-694.2589 191.7328,-694.5503"/>
</g>
<!-- 14 -->
<g id="node15" class="node">
<title>14</title>
<ellipse fill="none" stroke="#000000" cx="263.4194" cy="-666" rx="27" ry="18"/>
<text text-anchor="middle" x="263.4194" y="-661.8" font-family="Times,serif" font-size="14.00" fill="#000000">F'</text>
</g>
<!-- 10&#45;&gt;14 -->
<g id="edge14" class="edge">
<title>10-&gt;14</title>
<path fill="none" stroke="#000000" d="M202.3739,-723.0816C213.2144,-712.945 227.737,-699.3654 239.8976,-687.9944"/>
<polygon fill="#000000" stroke="#000000" points="242.5716,-690.2858 247.4854,-680.8993 237.7907,-685.1728 242.5716,-690.2858"/>
</g>
<!-- 13 -->
<g id="node14" class="node">
<title>13</title>
<ellipse fill="none" stroke="#000000" cx="188.4194" cy="-594" rx="31.339" ry="18"/>
<text text-anchor="middle" x="188.4194" y="-589.8" font-family="Times,serif" font-size="14.00" fill="#000000">VAR</text>
</g>
<!-- 12&#45;&gt;13 -->
<g id="edge13" class="edge">
<title>12-&gt;13</title>
<path fill="none" stroke="#000000" d="M189.1671,-647.8314C189.0601,-640.131 188.933,-630.9743 188.8141,-622.4166"/>
<polygon fill="#000000" stroke="#000000" points="192.3138,-622.3637 188.6752,-612.4133 185.3145,-622.4609 192.3138,-622.3637"/>
</g>
<!-- 15 -->
<g id="node16" class="node">
<title>15</title>
<ellipse fill="none" stroke="#000000" cx="264.4194" cy="-594" rx="27" ry="18"/>
<text text-anchor="middle" x="264.4194" y="-589.8" font-family="Times,serif" font-size="14.00" fill="#000000">Eps</text>
</g>
<!-- 14&#45;&gt;15 -->
<g id="edge15" class="edge">
<title>14-&gt;15</title>
<path fill="none" stroke="#000000" d="M263.6718,-647.8314C263.7787,-640.131 263.9059,-630.9743 264.0247,-622.4166"/>
<polygon fill="#000000" stroke="#000000" points="267.5244,-622.4609 264.1637,-612.4133 260.525,-622.3637 267.5244,-622.4609"/>
</g>
<!-- 17 -->
<g id="node18" class="node">
<title>17</title>
<ellipse fill="none" stroke="#000000" cx="258.4194" cy="-738" rx="27" ry="18"/>
<text text-anchor="middle" x="258.4194" y="-733.8" font-family="Times,serif" font-size="14.00" fill="#000000">Eps</text>
</g>
<!-- 16&#45;&gt;17 -->
<g id="edge17" class="edge">
<title>16-&gt;17</title>
<path fill="none" stroke="#000000" d="M258.4194,-791.8314C258.4194,-784.131 258.4194,-774.9743 258.4194,-766.4166"/>
<polygon fill="#000000" stroke="#000000" points="261.9195,-766.4132 258.4194,-756.4133 254.9195,-766.4133 261.9195,-766.4132"/>
</g>
<!-- 19 -->
<g id="node20" class="node">
<title>19</title>
<ellipse fill="none" stroke="#000000" cx="330.4194" cy="-810" rx="27" ry="18"/>
<text text-anchor="middle" x="330.4194" y="-805.8" font-family="Times,serif" font-size="14.00" fill="#000000">Eps</text>
</g>
<!-- 18&#45;&gt;19 -->
<g id="edge19" class="edge">
<title>18-&gt;19</title>
<path fill="none" stroke="#000000" d="M330.4194,-863.8314C330.4194,-856.131 330.4194,-846.9743 330.4194,-838.4166"/>
<polygon fill="#000000" stroke="#000000" points="333.9195,-838.4132 330.4194,-828.4133 326.9195,-838.4133 333.9195,-838.4132"/>
</g>
<!-- 22 -->
<g id="node23" class="node">
<title>22</title>
<ellipse fill="none" stroke="#000000" cx="458.4194" cy="-954" rx="27" ry="18"/>
<text text-anchor="middle" x="458.4194" y="-949.8" font-family="Times,serif" font-size="14.00" fill="#000000">Eps</text>
</g>
<!-- 21&#45;&gt;22 -->
<g id="edge22" class="edge">
<title>21-&gt;22</title>
<path fill="none" stroke="#000000" d="M458.4194,-1007.8314C458.4194,-1000.131 458.4194,-990.9743 458.4194,-982.4166"/>
<polygon fill="#000000" stroke="#000000" points="461.9195,-982.4132 458.4194,-972.4133 454.9195,-982.4133 461.9195,-982.4132"/>
</g>
<!-- 24 -->
<g id="node25" class="node">
<title>24</title>
<ellipse fill="none" stroke="#000000" cx="530.4194" cy="-1026" rx="27" ry="18"/>
<text text-anchor="middle" x="530.4194" y="-1021.8" font-family="Times,serif" font-size="14.00" fill="#000000">Eps</text>
</g>
<!-- 23&#45;&gt;24 -->
<g id="edge24" class="edge">
<title>23-&gt;24</title>
<path fill="none" stroke="#000000" d="M530.4194,-1079.8314C530.4194,-1072.131 530.4194,-1062.9743 530.4194,-1054.4166"/>
<polygon fill="#000000" stroke="#000000" points="533.9195,-1054.4132 530.4194,-1044.4133 526.9195,-1054.4133 533.9195,-1054.4132"/>
</g>
<!-- 26 -->
<g id="node27" class="node">
<title>26</title>
<ellipse fill="none" stroke="#000000" cx="602.4194" cy="-1098" rx="27" ry="18"/>
<text text-anchor="middle" x="602.4194" y="-1093.8" font-family="Times,serif" font-size="14.00" fill="#000000">OR</text>
</g>
<!-- 25&#45;&gt;26 -->
<g id="edge26" class="edge">
<title>25-&gt;26</title>
<path fill="none" stroke="#000000" d="M602.4194,-1151.8314C602.4194,-1144.131 602.4194,-1134.9743 602.4194,-1126.4166"/>
<polygon fill="#000000" stroke="#000000" points="605.9195,-1126.4132 602.4194,-1116.4133 598.9195,-1126.4133 605.9195,-1126.4132"/>
</g>
<!-- 27 -->
<g id="node28" class="node">
<title>27</title>
<ellipse fill="none" stroke="#000000" cx="674.4194" cy="-1098" rx="27" ry="18"/>
<text text-anchor="middle" x="674.4194" y="-1093.8" font-family="Times,serif" font-size="14.00" fill="#000000">T</text>
</g>
<!-- 25&#45;&gt;27 -->
<g id="edge27" class="edge">
<title>25-&gt;27</title>
<path fill="none" stroke="#000000" d="M617.6888,-1154.7307C627.6164,-1144.803 640.7347,-1131.6847 651.8558,-1120.5637"/>
<polygon fill="#000000" stroke="#000000" points="654.5759,-1122.7933 659.1721,-1113.2473 649.6261,-1117.8436 654.5759,-1122.7933"/>
</g>
<!-- 80 -->
<g id="node81" class="node">
<title>80</title>
<ellipse fill="none" stroke="#000000" cx="746.4194" cy="-1098" rx="27" ry="18"/>
<text text-anchor="middle" x="746.4194" y="-1093.8" font-family="Times,serif" font-size="14.00" fill="#000000">E'</text>
</g>
<!-- 25&#45;&gt;80 -->
<g id="edge80" class="edge">
<title>25-&gt;80</title>
<path fill="none" stroke="#000000" d="M624.2899,-1159.0647C648.6416,-1146.8889 688.1815,-1127.119 715.6479,-1113.3858"/>
<polygon fill="#000000" stroke="#000000" points="717.4359,-1116.4049 724.8149,-1108.8022 714.3054,-1110.1439 717.4359,-1116.4049"/>
</g>
<!-- 28 -->
<g id="node29" class="node">
<title>28</title>
<ellipse fill="none" stroke="#000000" cx="602.4194" cy="-1026" rx="27" ry="18"/>
<text text-anchor="middle" x="602.4194" y="-1021.8" font-family="Times,serif" font-size="14.00" fill="#000000">F</text>
</g>
<!-- 27&#45;&gt;28 -->
<g id="edge28" class="edge">
<title>27-&gt;28</title>
<path fill="none" stroke="#000000" d="M659.1501,-1082.7307C649.2224,-1072.803 636.1041,-1059.6847 624.9831,-1048.5637"/>
<polygon fill="#000000" stroke="#000000" points="627.2127,-1045.8436 617.6668,-1041.2473 622.263,-1050.7933 627.2127,-1045.8436"/>
</g>
<!-- 78 -->
<g id="node79" class="node">
<title>78</title>
<ellipse fill="none" stroke="#000000" cx="674.4194" cy="-1026" rx="27" ry="18"/>
<text text-anchor="middle" x="674.4194" y="-1021.8" font-family="Times,serif" font-size="14.00" fill="#000000">T'</text>
</g>
<!-- 27&#45;&gt;78 -->
<g id="edge78" class="edge">
<title>27-&gt;78</title>
<path fill="none" stroke="#000000" d="M674.4194,-1079.8314C674.4194,-1072.131 674.4194,-1062.9743 674.4194,-1054.4166"/>
<polygon fill="#000000" stroke="#000000" points="677.9195,-1054.4132 674.4194,-1044.4133 670.9195,-1054.4133 677.9195,-1054.4132"/>
</g>
<!-- 29 -->
<g id="node30" class="node">
<title>29</title>
<ellipse fill="none" stroke="#000000" cx="530.4194" cy="-954" rx="27" ry="18"/>
<text text-anchor="middle" x="530.4194" y="-949.8" font-family="Times,serif" font-size="14.00" fill="#000000">P</text>
</g>
<!-- 28&#45;&gt;29 -->
<g id="edge29" class="edge">
<title>28-&gt;29</title>
<path fill="none" stroke="#000000" d="M587.1501,-1010.7307C577.2224,-1000.803 564.1041,-987.6847 552.9831,-976.5637"/>
<polygon fill="#000000" stroke="#000000" points="555.2127,-973.8436 545.6668,-969.2473 550.263,-978.7933 555.2127,-973.8436"/>
</g>
<!-- 76 -->
<g id="node77" class="node">
<title>76</title>
<ellipse fill="none" stroke="#000000" cx="602.4194" cy="-954" rx="27" ry="18"/>
<text text-anchor="middle" x="602.4194" y="-949.8" font-family="Times,serif" font-size="14.00" fill="#000000">F'</text>
</g>
<!-- 28&#45;&gt;76 -->
<g id="edge76" class="edge">
<title>28-&gt;76</title>
<path fill="none" stroke="#000000" d="M602.4194,-1007.8314C602.4194,-1000.131 602.4194,-990.9743 602.4194,-982.4166"/>
<polygon fill="#000000" stroke="#000000" points="605.9195,-982.4132 602.4194,-972.4133 598.9195,-982.4133 605.9195,-982.4132"/>
</g>
<!-- 30 -->
<g id="node31" class="node">
<title>30</title>
<ellipse fill="none" stroke="#000000" cx="454.4194" cy="-882" rx="30.7577" ry="18"/>
<text text-anchor="middle" x="454.4194" y="-877.8" font-family="Times,serif" font-size="14.00" fill="#000000">NOT</text>
</g>
<!-- 29&#45;&gt;30 -->
<g id="edge30" class="edge">
<title>29-&gt;30</title>
<path fill="none" stroke="#000000" d="M514.6722,-939.0816C504.1151,-929.0801 490.02,-915.7269 478.1171,-904.4504"/>
<polygon fill="#000000" stroke="#000000" points="480.3375,-901.7327 470.6709,-897.3961 475.5233,-906.8144 480.3375,-901.7327"/>
</g>
<!-- 31 -->
<g id="node32" class="node">
<title>31</title>
<ellipse fill="none" stroke="#000000" cx="530.4194" cy="-882" rx="27" ry="18"/>
<text text-anchor="middle" x="530.4194" y="-877.8" font-family="Times,serif" font-size="14.00" fill="#000000">P</text>
</g>
<!-- 29&#45;&gt;31 -->
<g id="edge31" class="edge">
<title>29-&gt;31</title>
<path fill="none" stroke="#000000" d="M530.4194,-935.8314C530.4194,-928.131 530.4194,-918.9743 530.4194,-910.4166"/>
<polygon fill="#000000" stroke="#000000" points="533.9195,-910.4132 530.4194,-900.4133 526.9195,-910.4133 533.9195,-910.4132"/>
</g>
<!-- 32 -->
<g id="node33" class="node">
<title>32</title>
<ellipse fill="none" stroke="#000000" cx="458.4194" cy="-810" rx="27" ry="18"/>
<text text-anchor="middle" x="458.4194" y="-805.8" font-family="Times,serif" font-size="14.00" fill="#000000">(</text>
</g>
<!-- 31&#45;&gt;32 -->
<g id="edge32" class="edge">
<title>31-&gt;32</title>
<path fill="none" stroke="#000000" d="M515.1501,-866.7307C505.2224,-856.803 492.1041,-843.6847 480.9831,-832.5637"/>
<polygon fill="#000000" stroke="#000000" points="483.2127,-829.8436 473.6668,-825.2473 478.263,-834.7933 483.2127,-829.8436"/>
</g>
<!-- 33 -->
<g id="node34" class="node">
<title>33</title>
<ellipse fill="none" stroke="#000000" cx="530.4194" cy="-810" rx="27" ry="18"/>
<text text-anchor="middle" x="530.4194" y="-805.8" font-family="Times,serif" font-size="14.00" fill="#000000">E</text>
</g>
<!-- 31&#45;&gt;33 -->
<g id="edge33" class="edge">
<title>31-&gt;33</title>
<path fill="none" stroke="#000000" d="M530.4194,-863.8314C530.4194,-856.131 530.4194,-846.9743 530.4194,-838.4166"/>
<polygon fill="#000000" stroke="#000000" points="533.9195,-838.4132 530.4194,-828.4133 526.9195,-838.4133 533.9195,-838.4132"/>
</g>
<!-- 75 -->
<g id="node76" class="node">
<title>75</title>
<ellipse fill="none" stroke="#000000" cx="602.4194" cy="-810" rx="27" ry="18"/>
<text text-anchor="middle" x="602.4194" y="-805.8" font-family="Times,serif" font-size="14.00" fill="#000000">)</text>
</g>
<!-- 31&#45;&gt;75 -->
<g id="edge75" class="edge">
<title>31-&gt;75</title>
<path fill="none" stroke="#000000" d="M545.6888,-866.7307C555.6164,-856.803 568.7347,-843.6847 579.8558,-832.5637"/>
<polygon fill="#000000" stroke="#000000" points="582.5759,-834.7933 587.1721,-825.2473 577.6261,-829.8436 582.5759,-834.7933"/>
</g>
<!-- 34 -->
<g id="node35" class="node">
<title>34</title>
<ellipse fill="none" stroke="#000000" cx="522.4194" cy="-738" rx="27" ry="18"/>
<text text-anchor="middle" x="522.4194" y="-733.8" font-family="Times,serif" font-size="14.00" fill="#000000">T</text>
</g>
<!-- 33&#45;&gt;34 -->
<g id="edge34" class="edge">
<title>33-&gt;34</title>
<path fill="none" stroke="#000000" d="M528.4007,-791.8314C527.5451,-784.131 526.5277,-774.9743 525.5768,-766.4166"/>
<polygon fill="#000000" stroke="#000000" points="529.0483,-765.9656 524.4653,-756.4133 522.0911,-766.7386 529.0483,-765.9656"/>
</g>
<!-- 73 -->
<g id="node74" class="node">
<title>73</title>
<ellipse fill="none" stroke="#000000" cx="594.4194" cy="-738" rx="27" ry="18"/>
<text text-anchor="middle" x="594.4194" y="-733.8" font-family="Times,serif" font-size="14.00" fill="#000000">E'</text>
</g>
<!-- 33&#45;&gt;73 -->
<g id="edge73" class="edge">
<title>33-&gt;73</title>
<path fill="none" stroke="#000000" d="M544.3065,-794.3771C552.9447,-784.659 564.2087,-771.987 573.8691,-761.1191"/>
<polygon fill="#000000" stroke="#000000" points="576.5317,-763.3918 580.5595,-753.5924 571.2999,-758.7413 576.5317,-763.3918"/>
</g>
<!-- 35 -->
<g id="node36" class="node">
<title>35</title>
<ellipse fill="none" stroke="#000000" cx="444.4194" cy="-666" rx="27" ry="18"/>
<text text-anchor="middle" x="444.4194" y="-661.8" font-family="Times,serif" font-size="14.00" fill="#000000">F</text>
</g>
<!-- 34&#45;&gt;35 -->
<g id="edge35" class="edge">
<title>34-&gt;35</title>
<path fill="none" stroke="#000000" d="M506.2578,-723.0816C495.098,-712.7802 480.086,-698.923 467.6479,-687.4417"/>
<polygon fill="#000000" stroke="#000000" points="470.0155,-684.864 460.2935,-680.653 465.2676,-690.0076 470.0155,-684.864"/>
</g>
<!-- 40 -->
<g id="node41" class="node">
<title>40</title>
<ellipse fill="none" stroke="#000000" cx="522.4194" cy="-666" rx="27" ry="18"/>
<text text-anchor="middle" x="522.4194" y="-661.8" font-family="Times,serif" font-size="14.00" fill="#000000">T'</text>
</g>
<!-- 34&#45;&gt;40 -->
<g id="edge40" class="edge">
<title>34-&gt;40</title>
<path fill="none" stroke="#000000" d="M522.4194,-719.8314C522.4194,-712.131 522.4194,-702.9743 522.4194,-694.4166"/>
<polygon fill="#000000" stroke="#000000" points="525.9195,-694.4132 522.4194,-684.4133 518.9195,-694.4133 525.9195,-694.4132"/>
</g>
<!-- 36 -->
<g id="node37" class="node">
<title>36</title>
<ellipse fill="none" stroke="#000000" cx="370.4194" cy="-594" rx="27" ry="18"/>
<text text-anchor="middle" x="370.4194" y="-589.8" font-family="Times,serif" font-size="14.00" fill="#000000">P</text>
</g>
<!-- 35&#45;&gt;36 -->
<g id="edge36" class="edge">
<title>35-&gt;36</title>
<path fill="none" stroke="#000000" d="M429.0866,-651.0816C418.6684,-640.945 404.7116,-627.3654 393.0248,-615.9944"/>
<polygon fill="#000000" stroke="#000000" points="395.3407,-613.3644 385.7326,-608.8993 390.4592,-618.3815 395.3407,-613.3644"/>
</g>
<!-- 38 -->
<g id="node39" class="node">
<title>38</title>
<ellipse fill="none" stroke="#000000" cx="444.4194" cy="-594" rx="27" ry="18"/>
<text text-anchor="middle" x="444.4194" y="-589.8" font-family="Times,serif" font-size="14.00" fill="#000000">F'</text>
</g>
<!-- 35&#45;&gt;38 -->
<g id="edge38" class="edge">
<title>35-&gt;38</title>
<path fill="none" stroke="#000000" d="M444.4194,-647.8314C444.4194,-640.131 444.4194,-630.9743 444.4194,-622.4166"/>
<polygon fill="#000000" stroke="#000000" points="447.9195,-622.4132 444.4194,-612.4133 440.9195,-622.4133 447.9195,-622.4132"/>
</g>
<!-- 37 -->
<g id="node38" class="node">
<title>37</title>
<ellipse fill="none" stroke="#000000" cx="369.4194" cy="-522" rx="31.339" ry="18"/>
<text text-anchor="middle" x="369.4194" y="-517.8" font-family="Times,serif" font-size="14.00" fill="#000000">VAR</text>
</g>
<!-- 36&#45;&gt;37 -->
<g id="edge37" class="edge">
<title>36-&gt;37</title>
<path fill="none" stroke="#000000" d="M370.1671,-575.8314C370.0601,-568.131 369.933,-558.9743 369.8141,-550.4166"/>
<polygon fill="#000000" stroke="#000000" points="373.3138,-550.3637 369.6752,-540.4133 366.3145,-550.4609 373.3138,-550.3637"/>
</g>
<!-- 39 -->
<g id="node40" class="node">
<title>39</title>
<ellipse fill="none" stroke="#000000" cx="445.4194" cy="-522" rx="27" ry="18"/>
<text text-anchor="middle" x="445.4194" y="-517.8" font-family="Times,serif" font-size="14.00" fill="#000000">Eps</text>
</g>
<!-- 38&#45;&gt;39 -->
<g id="edge39" class="edge">
<title>38-&gt;39</title>
<path fill="none" stroke="#000000" d="M444.6718,-575.8314C444.7787,-568.131 444.9059,-558.9743 445.0247,-550.4166"/>
<polygon fill="#000000" stroke="#000000" points="448.5244,-550.4609 445.1637,-540.4133 441.525,-550.3637 448.5244,-550.4609"/>
</g>
<!-- 41 -->
<g id="node42" class="node">
<title>41</title>
<ellipse fill="none" stroke="#000000" cx="520.4194" cy="-594" rx="31.339" ry="18"/>
<text text-anchor="middle" x="520.4194" y="-589.8" font-family="Times,serif" font-size="14.00" fill="#000000">XOR</text>
</g>
<!-- 40&#45;&gt;41 -->
<g id="edge41" class="edge">
<title>40-&gt;41</title>
<path fill="none" stroke="#000000" d="M521.9147,-647.8314C521.7008,-640.131 521.4465,-630.9743 521.2088,-622.4166"/>
<polygon fill="#000000" stroke="#000000" points="524.7073,-622.3122 520.9309,-612.4133 517.71,-622.5066 524.7073,-622.3122"/>
</g>
<!-- 42 -->
<g id="node43" class="node">
<title>42</title>
<ellipse fill="none" stroke="#000000" cx="596.4194" cy="-594" rx="27" ry="18"/>
<text text-anchor="middle" x="596.4194" y="-589.8" font-family="Times,serif" font-size="14.00" fill="#000000">F</text>
</g>
<!-- 40&#45;&gt;42 -->
<g id="edge42" class="edge">
<title>40-&gt;42</title>
<path fill="none" stroke="#000000" d="M537.7523,-651.0816C548.1704,-640.945 562.1272,-627.3654 573.8141,-615.9944"/>
<polygon fill="#000000" stroke="#000000" points="576.3797,-618.3815 581.1062,-608.8993 571.4982,-613.3644 576.3797,-618.3815"/>
</g>
<!-- 71 -->
<g id="node72" class="node">
<title>71</title>
<ellipse fill="none" stroke="#000000" cx="668.4194" cy="-594" rx="27" ry="18"/>
<text text-anchor="middle" x="668.4194" y="-589.8" font-family="Times,serif" font-size="14.00" fill="#000000">T'</text>
</g>
<!-- 40&#45;&gt;71 -->
<g id="edge71" class="edge">
<title>40-&gt;71</title>
<path fill="none" stroke="#000000" d="M544.1025,-655.1108C548.8174,-652.7563 553.7819,-650.2873 558.4194,-648 591.2209,-631.8215 599.618,-628.1785 632.4194,-612 634.1585,-611.1423 635.9435,-610.259 637.7442,-609.3657"/>
<polygon fill="#000000" stroke="#000000" points="639.3441,-612.479 646.7364,-604.8892 636.2245,-606.2126 639.3441,-612.479"/>
</g>
<!-- 43 -->
<g id="node44" class="node">
<title>43</title>
<ellipse fill="none" stroke="#000000" cx="522.4194" cy="-522" rx="27" ry="18"/>
<text text-anchor="middle" x="522.4194" y="-517.8" font-family="Times,serif" font-size="14.00" fill="#000000">P</text>
</g>
<!-- 42&#45;&gt;43 -->
<g id="edge43" class="edge">
<title>42-&gt;43</title>
<path fill="none" stroke="#000000" d="M581.0866,-579.0816C570.6684,-568.945 556.7116,-555.3654 545.0248,-543.9944"/>
<polygon fill="#000000" stroke="#000000" points="547.3407,-541.3644 537.7326,-536.8993 542.4592,-546.3815 547.3407,-541.3644"/>
</g>
<!-- 69 -->
<g id="node70" class="node">
<title>69</title>
<ellipse fill="none" stroke="#000000" cx="596.4194" cy="-522" rx="27" ry="18"/>
<text text-anchor="middle" x="596.4194" y="-517.8" font-family="Times,serif" font-size="14.00" fill="#000000">F'</text>
</g>
<!-- 42&#45;&gt;69 -->
<g id="edge69" class="edge">
<title>42-&gt;69</title>
<path fill="none" stroke="#000000" d="M596.4194,-575.8314C596.4194,-568.131 596.4194,-558.9743 596.4194,-550.4166"/>
<polygon fill="#000000" stroke="#000000" points="599.9195,-550.4132 596.4194,-540.4133 592.9195,-550.4133 599.9195,-550.4132"/>
</g>
<!-- 44 -->
<g id="node45" class="node">
<title>44</title>
<ellipse fill="none" stroke="#000000" cx="381.4194" cy="-450" rx="27" ry="18"/>
<text text-anchor="middle" x="381.4194" y="-445.8" font-family="Times,serif" font-size="14.00" fill="#000000">(</text>
</g>
<!-- 43&#45;&gt;44 -->
<g id="edge44" class="edge">
<title>43-&gt;44</title>
<path fill="none" stroke="#000000" d="M500.6972,-510.9078C476.9261,-498.7694 438.6434,-479.2207 411.8789,-465.5538"/>
<polygon fill="#000000" stroke="#000000" points="413.4328,-462.4174 402.935,-460.9867 410.2493,-468.6516 413.4328,-462.4174"/>
</g>
<!-- 45 -->
<g id="node46" class="node">
<title>45</title>
<ellipse fill="none" stroke="#000000" cx="453.4194" cy="-450" rx="27" ry="18"/>
<text text-anchor="middle" x="453.4194" y="-445.8" font-family="Times,serif" font-size="14.00" fill="#000000">E</text>
</g>
<!-- 43&#45;&gt;45 -->
<g id="edge45" class="edge">
<title>43-&gt;45</title>
<path fill="none" stroke="#000000" d="M507.7863,-506.7307C498.2723,-496.803 485.7006,-483.6847 475.0429,-472.5637"/>
<polygon fill="#000000" stroke="#000000" points="477.4775,-470.0456 468.0315,-465.2473 472.4236,-474.8889 477.4775,-470.0456"/>
</g>
<!-- 68 -->
<g id="node69" class="node">
<title>68</title>
<ellipse fill="none" stroke="#000000" cx="525.4194" cy="-450" rx="27" ry="18"/>
<text text-anchor="middle" x="525.4194" y="-445.8" font-family="Times,serif" font-size="14.00" fill="#000000">)</text>
</g>
<!-- 43&#45;&gt;68 -->
<g id="edge68" class="edge">
<title>43-&gt;68</title>
<path fill="none" stroke="#000000" d="M523.1764,-503.8314C523.4973,-496.131 523.8788,-486.9743 524.2354,-478.4166"/>
<polygon fill="#000000" stroke="#000000" points="527.7328,-478.5503 524.6522,-468.4133 520.7388,-478.2589 527.7328,-478.5503"/>
</g>
<!-- 46 -->
<g id="node47" class="node">
<title>46</title>
<ellipse fill="none" stroke="#000000" cx="417.4194" cy="-378" rx="27" ry="18"/>
<text text-anchor="middle" x="417.4194" y="-373.8" font-family="Times,serif" font-size="14.00" fill="#000000">T</text>
</g>
<!-- 45&#45;&gt;46 -->
<g id="edge46" class="edge">
<title>45-&gt;46</title>
<path fill="none" stroke="#000000" d="M444.7048,-432.5708C440.4598,-424.0807 435.2658,-413.6929 430.5531,-404.2674"/>
<polygon fill="#000000" stroke="#000000" points="433.6565,-402.6477 426.0538,-395.2687 427.3955,-405.7782 433.6565,-402.6477"/>
</g>
<!-- 54 -->
<g id="node55" class="node">
<title>54</title>
<ellipse fill="none" stroke="#000000" cx="525.4194" cy="-378" rx="27" ry="18"/>
<text text-anchor="middle" x="525.4194" y="-373.8" font-family="Times,serif" font-size="14.00" fill="#000000">E'</text>
</g>
<!-- 45&#45;&gt;54 -->
<g id="edge54" class="edge">
<title>45-&gt;54</title>
<path fill="none" stroke="#000000" d="M468.6888,-434.7307C478.6164,-424.803 491.7347,-411.6847 502.8558,-400.5637"/>
<polygon fill="#000000" stroke="#000000" points="505.5759,-402.7933 510.1721,-393.2473 500.6261,-397.8436 505.5759,-402.7933"/>
</g>
<!-- 47 -->
<g id="node48" class="node">
<title>47</title>
<ellipse fill="none" stroke="#000000" cx="345.4194" cy="-306" rx="27" ry="18"/>
<text text-anchor="middle" x="345.4194" y="-301.8" font-family="Times,serif" font-size="14.00" fill="#000000">F</text>
</g>
<!-- 46&#45;&gt;47 -->
<g id="edge47" class="edge">
<title>46-&gt;47</title>
<path fill="none" stroke="#000000" d="M402.1501,-362.7307C392.2224,-352.803 379.1041,-339.6847 367.9831,-328.5637"/>
<polygon fill="#000000" stroke="#000000" points="370.2127,-325.8436 360.6668,-321.2473 365.263,-330.7933 370.2127,-325.8436"/>
</g>
<!-- 52 -->
<g id="node53" class="node">
<title>52</title>
<ellipse fill="none" stroke="#000000" cx="417.4194" cy="-306" rx="27" ry="18"/>
<text text-anchor="middle" x="417.4194" y="-301.8" font-family="Times,serif" font-size="14.00" fill="#000000">T'</text>
</g>
<!-- 46&#45;&gt;52 -->
<g id="edge52" class="edge">
<title>46-&gt;52</title>
<path fill="none" stroke="#000000" d="M417.4194,-359.8314C417.4194,-352.131 417.4194,-342.9743 417.4194,-334.4166"/>
<polygon fill="#000000" stroke="#000000" points="420.9195,-334.4132 417.4194,-324.4133 413.9195,-334.4133 420.9195,-334.4132"/>
</g>
<!-- 48 -->
<g id="node49" class="node">
<title>48</title>
<ellipse fill="none" stroke="#000000" cx="271.4194" cy="-234" rx="27" ry="18"/>
<text text-anchor="middle" x="271.4194" y="-229.8" font-family="Times,serif" font-size="14.00" fill="#000000">P</text>
</g>
<!-- 47&#45;&gt;48 -->
<g id="edge48" class="edge">
<title>47-&gt;48</title>
<path fill="none" stroke="#000000" d="M330.0866,-291.0816C319.6684,-280.945 305.7116,-267.3654 294.0248,-255.9944"/>
<polygon fill="#000000" stroke="#000000" points="296.3407,-253.3644 286.7326,-248.8993 291.4592,-258.3815 296.3407,-253.3644"/>
</g>
<!-- 50 -->
<g id="node51" class="node">
<title>50</title>
<ellipse fill="none" stroke="#000000" cx="345.4194" cy="-234" rx="27" ry="18"/>
<text text-anchor="middle" x="345.4194" y="-229.8" font-family="Times,serif" font-size="14.00" fill="#000000">F'</text>
</g>
<!-- 47&#45;&gt;50 -->
<g id="edge50" class="edge">
<title>47-&gt;50</title>
<path fill="none" stroke="#000000" d="M345.4194,-287.8314C345.4194,-280.131 345.4194,-270.9743 345.4194,-262.4166"/>
<polygon fill="#000000" stroke="#000000" points="348.9195,-262.4132 345.4194,-252.4133 341.9195,-262.4133 348.9195,-262.4132"/>
</g>
<!-- 49 -->
<g id="node50" class="node">
<title>49</title>
<ellipse fill="none" stroke="#000000" cx="269.4194" cy="-162" rx="31.339" ry="18"/>
<text text-anchor="middle" x="269.4194" y="-157.8" font-family="Times,serif" font-size="14.00" fill="#000000">VAR</text>
</g>
<!-- 48&#45;&gt;49 -->
<g id="edge49" class="edge">
<title>48-&gt;49</title>
<path fill="none" stroke="#000000" d="M270.9147,-215.8314C270.7008,-208.131 270.4465,-198.9743 270.2088,-190.4166"/>
<polygon fill="#000000" stroke="#000000" points="273.7073,-190.3122 269.9309,-180.4133 266.71,-190.5066 273.7073,-190.3122"/>
</g>
<!-- 51 -->
<g id="node52" class="node">
<title>51</title>
<ellipse fill="none" stroke="#000000" cx="345.4194" cy="-162" rx="27" ry="18"/>
<text text-anchor="middle" x="345.4194" y="-157.8" font-family="Times,serif" font-size="14.00" fill="#000000">Eps</text>
</g>
<!-- 50&#45;&gt;51 -->
<g id="edge51" class="edge">
<title>50-&gt;51</title>
<path fill="none" stroke="#000000" d="M345.4194,-215.8314C345.4194,-208.131 345.4194,-198.9743 345.4194,-190.4166"/>
<polygon fill="#000000" stroke="#000000" points="348.9195,-190.4132 345.4194,-180.4133 341.9195,-190.4133 348.9195,-190.4132"/>
</g>
<!-- 53 -->
<g id="node54" class="node">
<title>53</title>
<ellipse fill="none" stroke="#000000" cx="417.4194" cy="-234" rx="27" ry="18"/>
<text text-anchor="middle" x="417.4194" y="-229.8" font-family="Times,serif" font-size="14.00" fill="#000000">Eps</text>
</g>
<!-- 52&#45;&gt;53 -->
<g id="edge53" class="edge">
<title>52-&gt;53</title>
<path fill="none" stroke="#000000" d="M417.4194,-287.8314C417.4194,-280.131 417.4194,-270.9743 417.4194,-262.4166"/>
<polygon fill="#000000" stroke="#000000" points="420.9195,-262.4132 417.4194,-252.4133 413.9195,-262.4133 420.9195,-262.4132"/>
</g>
<!-- 55 -->
<g id="node56" class="node">
<title>55</title>
<ellipse fill="none" stroke="#000000" cx="489.4194" cy="-306" rx="27" ry="18"/>
<text text-anchor="middle" x="489.4194" y="-301.8" font-family="Times,serif" font-size="14.00" fill="#000000">OR</text>
</g>
<!-- 54&#45;&gt;55 -->
<g id="edge55" class="edge">
<title>54-&gt;55</title>
<path fill="none" stroke="#000000" d="M516.7048,-360.5708C512.4598,-352.0807 507.2658,-341.6929 502.5531,-332.2674"/>
<polygon fill="#000000" stroke="#000000" points="505.6565,-330.6477 498.0538,-323.2687 499.3955,-333.7782 505.6565,-330.6477"/>
</g>
<!-- 56 -->
<g id="node57" class="node">
<title>56</title>
<ellipse fill="none" stroke="#000000" cx="561.4194" cy="-306" rx="27" ry="18"/>
<text text-anchor="middle" x="561.4194" y="-301.8" font-family="Times,serif" font-size="14.00" fill="#000000">T</text>
</g>
<!-- 54&#45;&gt;56 -->
<g id="edge56" class="edge">
<title>54-&gt;56</title>
<path fill="none" stroke="#000000" d="M534.134,-360.5708C538.3791,-352.0807 543.573,-341.6929 548.2857,-332.2674"/>
<polygon fill="#000000" stroke="#000000" points="551.4434,-333.7782 552.7851,-323.2687 545.1824,-330.6477 551.4434,-333.7782"/>
</g>
<!-- 66 -->
<g id="node67" class="node">
<title>66</title>
<ellipse fill="none" stroke="#000000" cx="633.4194" cy="-306" rx="27" ry="18"/>
<text text-anchor="middle" x="633.4194" y="-301.8" font-family="Times,serif" font-size="14.00" fill="#000000">E'</text>
</g>
<!-- 54&#45;&gt;66 -->
<g id="edge66" class="edge">
<title>54-&gt;66</title>
<path fill="none" stroke="#000000" d="M544.7277,-365.1278C561.7749,-353.763 586.8213,-337.0654 605.9539,-324.3104"/>
<polygon fill="#000000" stroke="#000000" points="607.8993,-327.2199 614.2783,-318.7607 604.0164,-321.3956 607.8993,-327.2199"/>
</g>
<!-- 57 -->
<g id="node58" class="node">
<title>57</title>
<ellipse fill="none" stroke="#000000" cx="489.4194" cy="-234" rx="27" ry="18"/>
<text text-anchor="middle" x="489.4194" y="-229.8" font-family="Times,serif" font-size="14.00" fill="#000000">F</text>
</g>
<!-- 56&#45;&gt;57 -->
<g id="edge57" class="edge">
<title>56-&gt;57</title>
<path fill="none" stroke="#000000" d="M546.1501,-290.7307C536.2224,-280.803 523.1041,-267.6847 511.9831,-256.5637"/>
<polygon fill="#000000" stroke="#000000" points="514.2127,-253.8436 504.6668,-249.2473 509.263,-258.7933 514.2127,-253.8436"/>
</g>
<!-- 64 -->
<g id="node65" class="node">
<title>64</title>
<ellipse fill="none" stroke="#000000" cx="561.4194" cy="-234" rx="27" ry="18"/>
<text text-anchor="middle" x="561.4194" y="-229.8" font-family="Times,serif" font-size="14.00" fill="#000000">T'</text>
</g>
<!-- 56&#45;&gt;64 -->
<g id="edge64" class="edge">
<title>56-&gt;64</title>
<path fill="none" stroke="#000000" d="M561.4194,-287.8314C561.4194,-280.131 561.4194,-270.9743 561.4194,-262.4166"/>
<polygon fill="#000000" stroke="#000000" points="564.9195,-262.4132 561.4194,-252.4133 557.9195,-262.4133 564.9195,-262.4132"/>
</g>
<!-- 58 -->
<g id="node59" class="node">
<title>58</title>
<ellipse fill="none" stroke="#000000" cx="417.4194" cy="-162" rx="27" ry="18"/>
<text text-anchor="middle" x="417.4194" y="-157.8" font-family="Times,serif" font-size="14.00" fill="#000000">P</text>
</g>
<!-- 57&#45;&gt;58 -->
<g id="edge58" class="edge">
<title>57-&gt;58</title>
<path fill="none" stroke="#000000" d="M474.1501,-218.7307C464.2224,-208.803 451.1041,-195.6847 439.9831,-184.5637"/>
<polygon fill="#000000" stroke="#000000" points="442.2127,-181.8436 432.6668,-177.2473 437.263,-186.7933 442.2127,-181.8436"/>
</g>
<!-- 62 -->
<g id="node63" class="node">
<title>62</title>
<ellipse fill="none" stroke="#000000" cx="489.4194" cy="-162" rx="27" ry="18"/>
<text text-anchor="middle" x="489.4194" y="-157.8" font-family="Times,serif" font-size="14.00" fill="#000000">F'</text>
</g>
<!-- 57&#45;&gt;62 -->
<g id="edge62" class="edge">
<title>57-&gt;62</title>
<path fill="none" stroke="#000000" d="M489.4194,-215.8314C489.4194,-208.131 489.4194,-198.9743 489.4194,-190.4166"/>
<polygon fill="#000000" stroke="#000000" points="492.9195,-190.4132 489.4194,-180.4133 485.9195,-190.4133 492.9195,-190.4132"/>
</g>
<!-- 59 -->
<g id="node60" class="node">
<title>59</title>
<ellipse fill="none" stroke="#000000" cx="341.4194" cy="-90" rx="30.7577" ry="18"/>
<text text-anchor="middle" x="341.4194" y="-85.8" font-family="Times,serif" font-size="14.00" fill="#000000">NOT</text>
</g>
<!-- 58&#45;&gt;59 -->
<g id="edge59" class="edge">
<title>58-&gt;59</title>
<path fill="none" stroke="#000000" d="M401.6722,-147.0816C391.1151,-137.0801 377.02,-123.7269 365.1171,-112.4504"/>
<polygon fill="#000000" stroke="#000000" points="367.3375,-109.7327 357.6709,-105.3961 362.5233,-114.8144 367.3375,-109.7327"/>
</g>
<!-- 60 -->
<g id="node61" class="node">
<title>60</title>
<ellipse fill="none" stroke="#000000" cx="417.4194" cy="-90" rx="27" ry="18"/>
<text text-anchor="middle" x="417.4194" y="-85.8" font-family="Times,serif" font-size="14.00" fill="#000000">P</text>
</g>
<!-- 58&#45;&gt;60 -->
<g id="edge60" class="edge">
<title>58-&gt;60</title>
<path fill="none" stroke="#000000" d="M417.4194,-143.8314C417.4194,-136.131 417.4194,-126.9743 417.4194,-118.4166"/>
<polygon fill="#000000" stroke="#000000" points="420.9195,-118.4132 417.4194,-108.4133 413.9195,-118.4133 420.9195,-118.4132"/>
</g>
<!-- 61 -->
<g id="node62" class="node">
<title>61</title>
<ellipse fill="none" stroke="#000000" cx="417.4194" cy="-18" rx="31.339" ry="18"/>
<text text-anchor="middle" x="417.4194" y="-13.8" font-family="Times,serif" font-size="14.00" fill="#000000">VAR</text>
</g>
<!-- 60&#45;&gt;61 -->
<g id="edge61" class="edge">
<title>60-&gt;61</title>
<path fill="none" stroke="#000000" d="M417.4194,-71.8314C417.4194,-64.131 417.4194,-54.9743 417.4194,-46.4166"/>
<polygon fill="#000000" stroke="#000000" points="420.9195,-46.4132 417.4194,-36.4133 413.9195,-46.4133 420.9195,-46.4132"/>
</g>
<!-- 63 -->
<g id="node64" class="node">
<title>63</title>
<ellipse fill="none" stroke="#000000" cx="489.4194" cy="-90" rx="27" ry="18"/>
<text text-anchor="middle" x="489.4194" y="-85.8" font-family="Times,serif" font-size="14.00" fill="#000000">Eps</text>
</g>
<!-- 62&#45;&gt;63 -->
<g id="edge63" class="edge">
<title>62-&gt;63</title>
<path fill="none" stroke="#000000" d="M489.4194,-143.8314C489.4194,-136.131 489.4194,-126.9743 489.4194,-118.4166"/>
<polygon fill="#000000" stroke="#000000" points="492.9195,-118.4132 489.4194,-108.4133 485.9195,-118.4133 492.9195,-118.4132"/>
</g>
<!-- 65 -->
<g id="node66" class="node">
<title>65</title>
<ellipse fill="none" stroke="#000000" cx="561.4194" cy="-162" rx="27" ry="18"/>
<text text-anchor="middle" x="561.4194" y="-157.8" font-family="Times,serif" font-size="14.00" fill="#000000">Eps</text>
</g>
<!-- 64&#45;&gt;65 -->
<g id="edge65" class="edge">
<title>64-&gt;65</title>
<path fill="none" stroke="#000000" d="M561.4194,-215.8314C561.4194,-208.131 561.4194,-198.9743 561.4194,-190.4166"/>
<polygon fill="#000000" stroke="#000000" points="564.9195,-190.4132 561.4194,-180.4133 557.9195,-190.4133 564.9195,-190.4132"/>
</g>
<!-- 67 -->
<g id="node68" class="node">
<title>67</title>
<ellipse fill="none" stroke="#000000" cx="633.4194" cy="-234" rx="27" ry="18"/>
<text text-anchor="middle" x="633.4194" y="-229.8" font-family="Times,serif" font-size="14.00" fill="#000000">Eps</text>
</g>
<!-- 66&#45;&gt;67 -->
<g id="edge67" class="edge">
<title>66-&gt;67</title>
<path fill="none" stroke="#000000" d="M633.4194,-287.8314C633.4194,-280.131 633.4194,-270.9743 633.4194,-262.4166"/>
<polygon fill="#000000" stroke="#000000" points="636.9195,-262.4132 633.4194,-252.4133 629.9195,-262.4133 636.9195,-262.4132"/>
</g>
<!-- 70 -->
<g id="node71" class="node">
<title>70</title>
<ellipse fill="none" stroke="#000000" cx="597.4194" cy="-450" rx="27" ry="18"/>
<text text-anchor="middle" x="597.4194" y="-445.8" font-family="Times,serif" font-size="14.00" fill="#000000">Eps</text>
</g>
<!-- 69&#45;&gt;70 -->
<g id="edge70" class="edge">
<title>69-&gt;70</title>
<path fill="none" stroke="#000000" d="M596.6718,-503.8314C596.7787,-496.131 596.9059,-486.9743 597.0247,-478.4166"/>
<polygon fill="#000000" stroke="#000000" points="600.5244,-478.4609 597.1637,-468.4133 593.525,-478.3637 600.5244,-478.4609"/>
</g>
<!-- 72 -->
<g id="node73" class="node">
<title>72</title>
<ellipse fill="none" stroke="#000000" cx="668.4194" cy="-522" rx="27" ry="18"/>
<text text-anchor="middle" x="668.4194" y="-517.8" font-family="Times,serif" font-size="14.00" fill="#000000">Eps</text>
</g>
<!-- 71&#45;&gt;72 -->
<g id="edge72" class="edge">
<title>71-&gt;72</title>
<path fill="none" stroke="#000000" d="M668.4194,-575.8314C668.4194,-568.131 668.4194,-558.9743 668.4194,-550.4166"/>
<polygon fill="#000000" stroke="#000000" points="671.9195,-550.4132 668.4194,-540.4133 664.9195,-550.4133 671.9195,-550.4132"/>
</g>
<!-- 74 -->
<g id="node75" class="node">
<title>74</title>
<ellipse fill="none" stroke="#000000" cx="594.4194" cy="-666" rx="27" ry="18"/>
<text text-anchor="middle" x="594.4194" y="-661.8" font-family="Times,serif" font-size="14.00" fill="#000000">Eps</text>
</g>
<!-- 73&#45;&gt;74 -->
<g id="edge74" class="edge">
<title>73-&gt;74</title>
<path fill="none" stroke="#000000" d="M594.4194,-719.8314C594.4194,-712.131 594.4194,-702.9743 594.4194,-694.4166"/>
<polygon fill="#000000" stroke="#000000" points="597.9195,-694.4132 594.4194,-684.4133 590.9195,-694.4133 597.9195,-694.4132"/>
</g>
<!-- 77 -->
<g id="node78" class="node">
<title>77</title>
<ellipse fill="none" stroke="#000000" cx="602.4194" cy="-882" rx="27" ry="18"/>
<text text-anchor="middle" x="602.4194" y="-877.8" font-family="Times,serif" font-size="14.00" fill="#000000">Eps</text>
</g>
<!-- 76&#45;&gt;77 -->
<g id="edge77" class="edge">
<title>76-&gt;77</title>
<path fill="none" stroke="#000000" d="M602.4194,-935.8314C602.4194,-928.131 602.4194,-918.9743 602.4194,-910.4166"/>
<polygon fill="#000000" stroke="#000000" points="605.9195,-910.4132 602.4194,-900.4133 598.9195,-910.4133 605.9195,-910.4132"/>
</g>
<!-- 79 -->
<g id="node80" class="node">
<title>79</title>
<ellipse fill="none" stroke="#000000" cx="674.4194" cy="-954" rx="27" ry="18"/>
<text text-anchor="middle" x="674.4194" y="-949.8" font-family="Times,serif" font-size="14.00" fill="#000000">Eps</text>
</g>
<!-- 78&#45;&gt;79 -->
<g id="edge79" class="edge">
<title>78-&gt;79</title>
<path fill="none" stroke="#000000" d="M674.4194,-1007.8314C674.4194,-1000.131 674.4194,-990.9743 674.4194,-982.4166"/>
<polygon fill="#000000" stroke="#000000" points="677.9195,-982.4132 674.4194,-972.4133 670.9195,-982.4133 677.9195,-982.4132"/>
</g>
<!-- 81 -->
<g id="node82" class="node">
<title>81</title>
<ellipse fill="none" stroke="#000000" cx="746.4194" cy="-1026" rx="27" ry="18"/>
<text text-anchor="middle" x="746.4194" y="-1021.8" font-family="Times,serif" font-size="14.00" fill="#000000">Eps</text>
</g>
<!-- 80&#45;&gt;81 -->
<g id="edge81" class="edge">
<title>80-&gt;81</title>
<path fill="none" stroke="#000000" d="M746.4194,-1079.8314C746.4194,-1072.131 746.4194,-1062.9743 746.4194,-1054.4166"/>
<polygon fill="#000000" stroke="#000000" points="749.9195,-1054.4132 746.4194,-1044.4133 742.9195,-1054.4133 749.9195,-1054.4132"/>
</g>
</g>
</svg>